<?xml version="1.0" encoding="UTF-8"?>
<svg width="244px" height="42px" viewBox="0 0 244 42" version="1.1" xmlns="http://www.w3.org/2000/svg" xmlns:xlink="http://www.w3.org/1999/xlink">
    <!-- Generator: Sketch 44.1 (41455) - http://www.bohemiancoding.com/sketch -->
    <title>loly_in_the_sky</title>
    <desc>Created with Sketch.</desc>
    <defs>
        <polygon id="path-1" points="3.81532545e-16 28.6384891 3.81532545e-16 0.00501147321 24.175225 0.00501147321 24.175225 28.6384891 0 28.6384891"></polygon>
        <polygon id="path-3" points="0.459844537 28.83961 20.2686816 28.83961 20.2686816 0.0128123513 0.459844537 0.0128123513 0.459844537 28.83961"></polygon>
        <polygon id="path-5" points="0.0620178681 28.83961 19.8699814 28.83961 19.8699814 0.0128123513 0.0620178681 0.0128123513 0.0620178681 28.83961"></polygon>
    </defs>
    <g id="Symbols" stroke="none" stroke-width="1" fill="none" fill-rule="evenodd">
        <g id="NAV" transform="translate(-500.000000, -59.000000)">
            <g id="loly_in_the_sky" transform="translate(500.000000, 59.000000)">
                <g id="Group-3" transform="translate(0.000000, 1.396877)">
                    <mask id="mask-2" fill="white">
                        <use xlink:href="#path-1"></use>
                    </mask>
                    <g id="Clip-2"></g>
                    <path d="M23.7316856,23.9229765 C23.6326899,25.4859888 23.533209,27.0598751 23.4327575,28.6384891 C19.5263112,28.5732454 15.6227765,28.4446491 11.7153597,28.2527003 C7.80891338,28.0579147 3.90537871,28.10472 -9.70545666e-05,28.3968983 L-9.70545666e-05,28.0579147 L4.6682276,27.1383566 C4.73276889,22.7883033 4.75800308,18.4571613 4.7415038,14.1520221 C4.72209289,9.8483013 4.71724016,5.51905034 4.71724016,1.16616036 L0.0494007744,0.294353134 L-9.70545666e-05,0.00501147321 C2.35056455,0.0688368395 4.67599197,0.110914303 6.97715574,0.125570498 C9.2768637,0.141645035 11.6008353,0.115642108 13.9500411,0.0532350833 L13.9500411,0.294353134 L8.9857,1.16616036 C8.9857,5.51905034 8.96192163,9.8483013 8.91436489,14.1520221 C8.86195543,18.4571613 8.92018817,22.7883033 9.08421039,27.1383566 C10.9408642,27.1705057 12.6936697,27.202182 14.3489354,27.2343311 C16.0032304,27.2664802 17.4862242,27.0655485 18.7916081,26.6320087 C20.0965068,26.1956323 21.1912823,25.4127079 22.0691409,24.283708 C22.9431172,23.1575449 23.533209,21.4626268 23.8316518,19.2060456 L24.175225,19.2060456 C23.9811158,20.7846596 23.8316518,22.3590187 23.7316856,23.9229765" id="Fill-1" fill="#1A171B" mask="url(#mask-2)"></path>
                </g>
                <path d="M39.9826478,16.2502219 C39.4032321,15.026666 38.6923074,14.1000163 37.8489032,13.4683815 C37.0050137,12.8414746 36.0863922,12.5251844 35.093524,12.5251844 C34.1331691,12.5251844 33.2388112,12.8414746 32.4109358,13.4683815 C31.5850014,14.1000163 30.9017373,15.0403767 30.353379,16.2984455 C29.8040501,17.5569872 29.5332679,19.1199995 29.5332679,20.9907919 C29.5332679,22.9249369 29.812785,24.531445 30.3771574,25.8027518 C30.9371622,27.077368 31.6524544,28.0087455 32.5128431,28.6068129 C33.3712907,29.2072441 34.2899122,29.4871301 35.2662811,29.4549811 C36.2431354,29.422832 37.1452576,29.0762839 37.9726477,28.4129729 C38.8000379,27.7524985 39.4857284,26.786608 40.0306898,25.5134101 C40.577107,24.2373756 40.8508009,22.6833461 40.8508009,20.8437572 C40.8508009,19.0065322 40.5620636,17.4775601 39.9826478,16.2502219 M43.3591762,26.0925662 C42.4153205,27.4967243 41.2220346,28.5543342 39.7841712,29.2597227 C38.3443667,29.9703118 36.7958611,30.3248972 35.1425366,30.3248972 C33.4867857,30.3248972 31.9407064,29.9788218 30.5009019,29.2843073 C29.0615827,28.5921567 27.8605324,27.5430567 26.9006628,26.140317 C25.9417637,24.7380501 25.4458148,22.9892351 25.4133015,20.8938719 C25.3788472,18.8618614 25.8359742,17.1612699 26.778374,15.7920976 C27.7202886,14.4205614 28.9121187,13.3894272 30.353379,12.6944399 C31.7931835,12.002762 33.3567325,11.6491222 35.0440262,11.6311565 C36.7318051,11.6155548 38.2938984,11.9460283 39.7346734,12.6225772 C41.1773895,13.2991261 42.3755282,14.3231687 43.333942,15.6956504 C44.2957528,17.0638772 44.7722907,18.7814887 44.7722907,20.8437572 C44.7722907,22.9424298 44.301576,24.6884081 43.3591762,26.0925662" id="Fill-4" fill="#1A171B"></path>
                <path d="M45.2635324,29.7939647 L45.2635324,29.5509555 L48.3891747,28.6810394 L48.3891747,2.32021754 L45.3110891,1.74106144 L45.3110891,1.35243587 C46.4044088,1.28813773 47.4977285,1.16899704 48.5905629,0.990758797 C49.6824268,0.812520552 50.7412921,0.498594306 51.7671589,0.0456705955 L52.3630739,0.67541421 C52.130143,5.38478068 52.0151333,10.0605797 52.0151333,14.7023386 C52.0151333,19.3147851 52.0481319,23.9726185 52.1150995,28.6810394 L55.0437211,29.5509555 L55.0437211,29.7939647 C51.7671589,29.6965719 48.5056402,29.6965719 45.2635324,29.7939647" id="Fill-6" fill="#1A171B"></path>
                <g id="Group-10" transform="translate(53.380012, 12.270829)">
                    <mask id="mask-4" fill="white">
                        <use xlink:href="#path-3"></use>
                    </mask>
                    <g id="Clip-9"></g>
                    <path d="M20.2191838,0.254403182 L17.78457,1.12715597 L9.09915679,22.3583095 C8.83177146,22.9686691 8.54643103,23.6556192 8.23148896,24.4139591 C7.91509108,25.1713534 7.5341519,25.8734324 7.0877009,26.5178323 C6.64270571,27.1631776 6.11424359,27.711603 5.501344,28.1626356 C4.88795914,28.6127226 4.16684371,28.8396572 3.34042408,28.8396572 C2.6789972,28.8396572 2.05639216,28.6458172 1.47843221,28.2590828 C0.899501724,27.8732939 0.610764388,27.3248686 0.610764388,26.6166434 C0.610764388,26.1315706 0.742273326,25.7524006 1.00820284,25.4791335 C1.27122071,25.2035025 1.58470696,25.025737 1.9520585,24.9467827 C2.31213094,24.86641 2.66152738,24.8980863 2.99151291,25.0422843 C3.32295425,25.1888463 3.57092867,25.4540761 3.73980362,25.8422289 C3.83637291,26.0994215 3.87810638,26.3882904 3.86063655,26.712145 C3.84656364,27.0326902 4.05183405,27.196745 4.4832416,27.196745 C4.74771529,27.196745 5.04470227,27.0019595 5.37468779,26.6166434 C5.70467332,26.2280178 6.03659994,25.7358533 6.3694971,25.1396771 C6.69802681,24.5430281 7.02170379,23.8915366 7.33519004,23.1809475 C7.65061738,22.4708312 7.94032526,21.7786806 8.20625478,21.1007134 C8.46878738,20.4255828 8.6934687,19.8119138 8.87690183,19.2649067 C9.05839387,18.7145902 9.19960827,18.3131996 9.29666283,18.0541159 C8.23779751,15.2164874 7.17019728,12.3972973 6.09483268,9.58992676 C5.01946808,6.78492011 3.95041203,3.96336614 2.89251725,1.12715597 L0.459844537,0.254403182 L0.459844537,0.0128123513 C2.01611451,0.0785288396 3.5651054,0.12675245 5.10439083,0.157483182 C6.64270571,0.190105036 8.1897555,0.143299767 9.74311384,0.0128123513 L9.74311384,0.254403182 L6.91445849,1.12715597 L11.3333529,13.6544206 C12.1607431,11.5590575 12.9551347,9.46038491 13.7184689,7.36454899 C14.4769503,5.27107698 15.3062816,3.18942447 16.1991836,1.12715597 L13.418085,0.254403182 L13.418085,0.0128123513 C14.5783724,0.0785288396 15.7182782,0.109259572 16.8441112,0.109259572 C17.9704295,0.109259572 19.1122764,0.0785288396 20.2686816,0.0128123513 L20.2191838,0.254403182 Z" id="Fill-8" fill="#1A171B" mask="url(#mask-4)"></path>
                </g>
                <path d="M89.2632202,5.53739423 C88.7493162,5.94067598 88.197561,6.14018935 87.6055282,6.14018935 C87.0071868,6.14018935 86.4525199,5.94067598 85.9376454,5.53739423 C85.4271384,5.13363969 85.168488,4.54455519 85.168488,3.77250465 C85.168488,2.9957263 85.4271384,2.40853293 85.9376454,2.00619674 C86.4525199,1.6048061 87.0071868,1.40198327 87.6055282,1.40198327 C88.197561,1.40198327 88.7493162,1.6048061 89.2632202,2.00619674 C89.7785799,2.40853293 90.0338334,2.9957263 90.0338334,3.77250465 C90.0338334,4.54455519 89.7785799,5.13363969 89.2632202,5.53739423 M82.3907863,29.7938701 L82.3907863,29.5508609 L85.5183697,28.6809448 C85.5838815,26.1317124 85.6348352,23.5853167 85.6688043,21.0393938 C85.6969501,18.4906341 85.6489081,15.9428201 85.5183697,13.3978427 L82.0428457,12.8640735 L82.0428457,12.6224827 C82.7688138,12.4938864 83.398698,12.3974392 83.9276454,12.3312499 C84.4595044,12.2674245 84.954968,12.1705045 85.4179182,12.0419082 C85.8808685,11.9118936 86.3603181,11.7525666 86.8586933,11.5582538 C87.3531863,11.363941 87.9491013,11.0750721 88.6454679,10.6883377 L89.3428049,11.1237685 C89.1414167,14.0564259 89.0826987,16.9843555 89.1666509,19.9014111 C89.2501178,22.8217762 89.2923365,25.7459235 89.2923365,28.6809448 L92.170975,29.5508609 L92.170975,29.7938701 C88.8915012,29.6964773 85.6348352,29.6964773 82.3907863,29.7938701" id="Fill-11" fill="#1A171B"></path>
                <path d="M105.658211,29.7939647 L105.658211,29.5509555 L108.540247,28.6313974 C108.540247,27.1180271 108.544614,25.6108029 108.562569,24.109252 C108.581495,22.6100651 108.587803,21.1033137 108.587803,19.5866339 C108.587803,18.9427068 108.562569,18.2325905 108.514527,17.4586489 C108.463574,16.6832889 108.322359,15.9674992 108.093796,15.3051337 C107.858924,14.6465505 107.496425,14.0900879 107.000476,13.6390553 C106.503071,13.1870771 105.790691,12.9620336 104.863334,12.9620336 C104.466381,12.9620336 104.021386,13.0329507 103.523981,13.1790399 C103.028518,13.3222924 102.539848,13.5175507 102.058457,13.758196 C101.579008,14.0016779 101.132557,14.266435 100.717649,14.5562494 C100.304196,14.847955 99.980034,15.1547895 99.7514704,15.4762803 C99.683047,17.669509 99.6602392,19.8693566 99.6767384,22.0796054 C99.6932377,24.2851264 99.7340006,26.4868651 99.8009683,28.6810394 L102.729105,29.5509555 L102.729105,29.7939647 C99.4840851,29.6965719 96.2439184,29.6965719 93.0013253,29.7939647 L93.0013253,29.5509555 L96.1259971,28.6810394 L96.1259971,13.2504297 L93.4958184,12.4769608 L93.4958184,12.1403411 C94.4862602,12.0420028 95.433998,11.9758135 96.3273853,11.9460283 C97.2188315,11.9119881 98.1626872,11.7994664 99.1570112,11.6070447 L99.8504661,12.0420028 C99.784469,12.3634935 99.7592348,12.6878209 99.7723372,13.0088389 C99.7936892,13.331748 99.8009683,13.6527659 99.8009683,13.9780389 C100.562361,13.2683954 101.398972,12.7024771 102.308373,12.2835936 C103.217774,11.8651829 104.203849,11.6547956 105.262714,11.6547956 C106.685534,11.6547956 107.850189,11.8410711 108.760075,12.2107854 C109.671903,12.5814453 110.377004,13.1152145 110.872953,13.8083107 C111.367446,14.5014069 111.706167,15.3401195 111.888629,16.3206662 C112.068666,17.3064136 112.16475,18.4089377 112.16475,19.6353303 C112.195807,21.1515373 112.212306,22.6658532 112.212306,24.1848969 L112.212306,28.6810394 L115.042417,29.5509555 L115.042417,29.7939647 C111.897364,29.6965719 108.771722,29.6965719 105.658211,29.7939647" id="Fill-13" fill="#1A171B"></path>
                <path d="M134.042887,29.9393919 C133.166484,30.1970573 132.246407,30.324708 131.286052,30.324708 C130.228643,30.324708 129.400282,30.1474154 128.805337,29.7937756 C128.209908,29.4377718 127.762001,28.9720831 127.462587,28.3867808 C127.167056,27.8109342 126.979256,27.1310758 126.892877,26.3571342 C126.812322,25.5850836 126.770103,24.7799384 126.770103,23.9407531 C126.770103,22.1990297 126.777382,20.4894555 126.793881,18.8129759 C126.812322,17.136969 126.819601,15.4273948 126.819601,13.6880353 L124.138954,13.6880353 L124.138954,13.3982209 C124.961491,13.1391372 125.669504,12.8479044 126.246494,12.5254681 C126.82688,12.202559 127.314094,11.8162974 127.711047,11.3638464 C128.109456,10.9137594 128.437986,10.3885003 128.703915,9.79232409 C128.968874,9.19756623 129.20229,8.49643276 129.400282,7.69034203 L130.542614,7.69034203 L130.542614,12.2834045 L135.655934,12.1869573 L135.655934,13.6880353 L130.492146,13.6880353 C130.460118,15.3635694 130.450412,17.0310662 130.470794,18.6924168 C130.485837,20.3528219 130.492146,22.0222098 130.492146,23.6977439 C130.492146,24.3757111 130.510101,25.086773 130.542614,25.82762 C130.573672,26.568467 130.75759,27.2459615 131.085634,27.8601033 C131.385048,28.4378411 131.756281,28.8349767 132.206615,29.0430001 C132.653066,29.254333 133.124266,29.3337601 133.619244,29.284591 C134.116163,29.2363674 134.615024,29.0997338 135.107576,28.8756358 C135.606436,28.6487012 136.069386,28.3867808 136.499338,28.1016942 L136.499338,28.5848758 C135.736489,29.2278573 134.921716,29.6817266 134.042887,29.9393919" id="Fill-15" fill="#1A171B"></path>
                <path d="M149.653629,29.7939647 L149.653629,29.5509555 L152.580309,28.6313974 L152.580309,19.5866339 C152.580309,18.9427068 152.574971,18.2325905 152.556046,17.4586489 C152.538576,16.6832889 152.424051,15.9674992 152.209076,15.3051337 C151.995555,14.6465505 151.636939,14.0900879 151.141961,13.6390553 C150.643585,13.1870771 149.932661,12.9620336 149.00676,12.9620336 C148.609807,12.9620336 148.1619,13.0329507 147.665951,13.1790399 C147.171944,13.3222924 146.683274,13.5175507 146.202854,13.758196 C145.722434,14.0016779 145.265792,14.266435 144.83584,14.5562494 C144.406859,14.847955 144.073962,15.1547895 143.843942,15.4762803 L143.843942,28.6810394 L146.774505,29.5509555 L146.774505,29.7939647 C143.526089,29.6965719 140.286893,29.6965719 137.041873,29.7939647 L137.041873,29.5509555 L140.170427,28.6810394 L140.170427,19.2003722 L140.170427,17.7026036 L140.170427,2.32021754 L137.140869,1.74106144 L137.090886,1.35243587 C138.187117,1.28813773 139.276069,1.16899704 140.369389,0.990758797 C141.458826,0.812520552 142.503619,0.498594306 143.496487,0.0456705955 L144.091917,0.67541421 C143.997774,2.9003192 143.924983,5.11907805 143.89344,7.32696294 C143.861898,9.5357934 143.843942,11.7521883 143.843942,13.9780389 C144.602909,13.2683954 145.457475,12.7024771 146.400845,12.2835936 C147.346642,11.8651829 148.345333,11.6547956 149.402257,11.6547956 C150.827504,11.6547956 151.983424,11.8410711 152.879237,12.2107854 C153.769228,12.5814453 154.46705,13.1152145 154.963969,13.8083107 C155.459918,14.5014069 155.800094,15.3401195 155.982557,16.3206662 C156.161623,17.3064136 156.25528,18.4089377 156.25528,19.6353303 L156.25528,24.1848969 C156.25528,25.666591 156.237325,27.1662507 156.206753,28.6810394 L159.033467,29.5509555 L159.033467,29.7939647 C155.890355,29.6965719 152.762772,29.6965719 149.653629,29.7939647" id="Fill-17" fill="#1A171B"></path>
                <path d="M173.126324,13.758196 C172.696373,13.2603581 172.159175,12.9128644 171.513763,12.7185517 C170.86932,12.5251844 170.156455,12.4864164 169.378077,12.5984654 C168.600185,12.7124055 167.86354,13.0182945 167.172512,13.5175507 C166.475175,14.0163341 165.869069,14.720777 165.356621,15.6218967 C164.844658,16.5244346 164.521466,17.669509 164.390443,19.0557014 C164.850481,19.1199995 165.325078,19.1696415 165.807925,19.2003722 C166.283492,19.2334668 166.757604,19.2490686 167.219098,19.2490686 C167.948948,19.2490686 168.694327,19.2410313 169.452809,19.2235384 C170.214687,19.2088822 170.919789,19.0968333 171.562775,18.8869187 C172.208188,18.6765314 172.73665,18.3228916 173.153985,17.8241082 C173.565981,17.3229609 173.771737,16.5721854 173.771737,15.5722547 C173.771737,14.8640295 173.555305,14.2602888 173.126324,13.758196 M176.727534,18.6684941 C176.17869,19.1842977 175.519205,19.5800149 174.740827,19.8542276 C173.960508,20.1279675 173.135059,20.305733 172.259142,20.3846873 C171.382254,20.4669511 170.62814,20.5061919 169.999711,20.5061919 C169.040812,20.5061919 168.082884,20.4589139 167.119132,20.3610483 C166.161203,20.2636555 165.201819,20.1345864 164.239038,19.9743139 C164.177408,21.0394883 164.246802,22.1117545 164.463719,23.189694 C164.678209,24.270943 165.050414,25.2467619 165.582273,26.1171508 C166.109764,26.9870669 166.812439,27.6882004 167.691269,28.221024 C168.570098,28.7533748 169.635271,29.0181319 170.894069,29.0181319 C172.151411,29.0181319 173.167087,28.8205096 173.946435,28.4129729 C174.722872,28.0087455 175.540071,27.3756925 176.404828,26.504358 L176.753253,26.6963069 C175.8225,27.9548486 174.740827,28.884335 173.498529,29.4786201 C172.259142,30.0747963 170.994035,30.3802125 169.702239,30.396287 C168.408987,30.4151982 167.153101,30.1561145 165.928272,29.625182 C164.705385,29.0909401 163.652343,28.3344913 162.774484,27.3511079 C161.898081,26.3672517 161.237625,25.1739537 160.791174,23.7702684 C160.346179,22.3698926 160.269021,20.7808774 160.565522,19.0065322 L160.715472,18.2325905 C160.780498,17.8784779 160.906184,17.5082908 161.086705,17.1210836 C161.266256,16.7329308 161.44241,16.39442 161.6108,16.1055511 C162.504187,14.6545878 163.643608,13.5520637 165.0344,12.7923054 C166.427133,12.0349111 167.97855,11.6547956 169.702239,11.6547956 C170.527688,11.6547956 171.405062,11.7200393 172.333874,11.84769 C173.259289,11.9758135 174.113854,12.220241 174.890291,12.5748264 C175.668669,12.9294118 176.306802,13.4296135 176.802266,14.0716494 C177.296274,14.720777 177.545704,15.556653 177.545704,16.5877872 C177.545704,17.4586489 177.274436,18.1531634 176.727534,18.6684941" id="Fill-19" fill="#1A171B"></path>
                <path d="M198.308345,28.7286011 C197.166013,29.7937756 195.651476,30.324708 193.76522,30.324708 C192.801954,30.324708 192.025517,30.2112407 191.430088,29.9890339 C190.837084,29.7602081 190.121792,29.4070411 189.295858,28.9224411 L186.815143,32.0186805 L186.663253,31.8725914 C187.028663,31.1629479 187.311092,30.5114563 187.509568,29.9148074 C187.708045,29.3181584 187.85023,28.7129994 187.928844,28.1016942 C188.014252,27.4875523 188.051618,26.8738832 188.051618,26.2625781 C188.051618,25.6195966 188.038031,24.908062 188.004061,24.1341203 L188.302989,24.1341203 C188.467012,25.2952692 188.830966,26.2450852 189.394853,26.9868778 C189.956799,27.7291431 190.594448,28.2936431 191.307314,28.6808503 C192.016297,29.0675847 192.772352,29.284591 193.566744,29.3337601 C194.35968,29.3819837 195.087104,29.2770265 195.751927,29.0184155 C196.410443,28.7621685 196.958316,28.3811074 197.388267,27.8832696 C197.818704,27.3830678 198.036592,26.7632526 198.036592,26.0209872 C198.036592,25.1832202 197.795897,24.5444938 197.314021,24.1095357 C196.83263,23.6745777 196.220701,23.3209378 195.475322,23.0457796 C194.733825,22.7706214 193.920993,22.5219388 193.042164,22.2959497 C192.166247,22.0694879 191.355356,21.7650173 190.609977,21.3768645 C189.867994,20.9906028 189.24636,20.4506875 188.750896,19.7557002 C188.253492,19.0621312 188.004061,18.1208252 188.004061,16.9270545 C188.004061,15.6373093 188.335503,14.5726076 188.99693,13.7362589 C189.660298,12.8966008 190.477982,12.3084619 191.455322,11.9694783 C192.433632,11.6309674 193.482306,11.5340474 194.609595,11.6796638 C195.733972,11.8262258 196.772942,12.2526738 197.735238,12.9618445 L199.274523,10.5913231 L199.521042,10.6882431 C199.228422,11.8162974 199.025578,12.9788646 198.926097,14.1693259 C198.829528,15.3635694 198.829528,16.5247183 198.926097,17.6522998 L198.5306,17.6522998 C198.5306,16.6206927 198.324844,15.7436849 197.912847,15.0151302 C197.494542,14.2908305 196.967051,13.7277489 196.318726,13.3221032 C195.673799,12.9211854 194.987137,12.6791218 194.259714,12.5987491 C193.532775,12.519322 192.844173,12.5746373 192.19876,12.7680045 C191.553347,12.9618445 191.024885,13.298937 190.609977,13.7849553 C190.200406,14.2667187 189.991739,14.8955167 189.991739,15.6685128 C189.991739,16.4750763 190.238258,17.0726709 190.735662,17.4584598 C191.231126,17.8466125 191.853731,18.1605388 192.600566,18.4026024 C193.341577,18.6418293 194.145189,18.862145 195.005093,19.0555123 C195.868393,19.2493523 196.671519,19.5401123 197.413502,19.9277923 C198.156454,20.3126356 198.777604,20.8435681 199.274523,21.5234264 C199.770957,22.1990297 200.019417,23.1346623 200.019417,24.3274875 C200.019417,26.1987527 199.449706,27.6653178 198.308345,28.7286011" id="Fill-21" fill="#1A171B"></path>
                <path d="M229.183392,33.8793082 C228.969387,34.2187646 228.692781,34.5005417 228.363281,34.7265308 C228.033295,34.9515743 227.651871,35.1146836 227.220463,35.210658 C226.793423,35.3066325 226.379971,35.3558016 225.982532,35.3558016 C224.821275,35.3558016 223.666325,35.1047552 222.507008,34.605499 C221.345751,34.1052972 220.214094,33.4457685 219.106702,32.624076 C217.997368,31.8014379 216.920548,30.8648598 215.878181,29.8185965 C214.834845,28.7694966 213.842947,27.7062133 212.899092,26.6249643 C211.956206,25.5456064 211.069613,24.4818503 210.24562,23.4341688 C209.417744,22.3845961 208.671395,21.4593647 208.009482,20.65091 C209.134345,19.4595032 210.258237,18.2652597 211.383099,17.0724345 C212.511844,15.8786637 213.602252,14.6546351 214.664029,13.3979845 L211.930972,12.5252317 L211.930972,12.2836409 C213.122802,12.3493574 214.331617,12.3800881 215.557416,12.3800881 C216.813302,12.3800881 218.039101,12.3493574 219.230931,12.2836409 L219.230931,12.5252317 C218.466627,12.5252317 217.706204,12.7682409 216.940929,13.250477 C216.184389,13.7360226 215.45745,14.3156514 214.761083,14.9926731 C214.065202,15.6687492 213.403775,16.3793383 212.775347,17.1211309 C212.147889,17.8633962 211.616515,18.490776 211.190446,19.0065795 C211.616515,19.522383 212.206122,20.2575567 212.946648,21.2097366 C213.693483,22.1590798 214.528152,23.2015608 215.45745,24.3277239 C216.381895,25.4567237 217.366999,26.6003797 218.414703,27.7615286 C219.453186,28.9226775 220.475171,29.9788691 221.462216,30.9301035 C222.455084,31.8813378 223.393117,32.6614256 224.266608,33.2755675 C225.146407,33.8892366 225.898095,34.1955983 226.527979,34.1955983 C226.729367,34.1955983 226.856509,34.1223173 226.924932,33.976701 C226.990444,33.8325029 227.01034,33.6542647 226.97443,33.4457685 C226.939976,33.2330172 226.908918,33.0339767 226.875434,32.8391911 C226.842921,32.6472422 226.826422,32.5016258 226.826422,32.4051786 C226.856509,32.0505932 227.014708,31.7825267 227.295195,31.6080707 C227.577624,31.4293597 227.882376,31.3480414 228.213817,31.3636432 C228.543802,31.3797177 228.843701,31.5035862 229.110116,31.7276842 C229.372648,31.9532004 229.504157,32.2775279 229.504157,32.6968842 C229.504157,33.1464984 229.399338,33.5417429 229.183392,33.8793082 M201.013304,29.7940119 L201.013304,29.5510028 L204.140887,28.7283647 C204.271426,24.3130677 204.319468,19.9091174 204.286469,15.5250239 C204.253471,11.1409304 204.237457,6.73934407 204.237457,2.32026482 L201.257882,1.69146676 L201.208869,1.30615066 C202.300733,1.24185252 203.398905,1.16006149 204.505813,1.06266871 C205.617087,0.965275929 206.65363,0.611163341 207.610588,-0.000141834147 L208.256001,0.627710658 C208.12886,2.23941935 208.041511,3.83599907 208.009482,5.41697703 C207.975513,6.99559109 207.961926,8.59075247 207.961926,10.2043523 L207.961926,28.6806139 L210.541151,29.5510028 L210.541151,29.7940119 C207.36407,29.6966192 204.185047,29.6966192 201.013304,29.7940119" id="Fill-23" fill="#1A171B"></path>
                <g id="Group-27" transform="translate(224.196049, 12.270829)">
                    <mask id="mask-6" fill="white">
                        <use xlink:href="#path-5"></use>
                    </mask>
                    <g id="Clip-26"></g>
                    <path d="M19.8208718,0.254403182 L17.3848022,1.12715597 L8.69938903,22.3583095 C8.43540061,22.9686691 8.14520745,23.6556192 7.8317212,24.4139591 C7.51726441,25.1713534 7.13438414,25.8734324 6.68938895,26.5178323 C6.23808522,27.1631776 5.7096231,27.711603 5.10157624,28.1626356 C4.48770611,28.6127226 3.76659068,28.8396572 2.94211213,28.8396572 C2.27777363,28.8396572 1.65468331,28.6458172 1.07672336,28.2590828 C0.500704509,27.8732939 0.210996628,27.3248686 0.210996628,26.6166434 C0.210996628,26.1315706 0.339593929,25.7524006 0.608435078,25.4791335 C0.8724235,25.2035025 1.1849392,25.025737 1.5493791,24.9467827 C1.91527482,24.86641 2.26224489,24.8980863 2.59320097,25.0422843 C2.92318649,25.1888463 3.17019037,25.4540761 3.34003586,25.8422289 C3.43660515,26.0994215 3.4768828,26.3882904 3.46183934,26.712145 C3.44145788,27.0326902 3.65061047,27.196745 4.08201802,27.196745 C4.34455062,27.196745 4.64541978,27.0019595 4.97492003,26.6166434 C5.30684665,26.2280178 5.63780272,25.7358533 5.96778825,25.1396771 C6.30117069,24.5430281 6.6224213,23.8915366 6.93542228,23.1809475 C7.25133489,22.4708312 7.53861641,21.7786806 7.8050312,21.1007134 C8.0675638,20.4255828 8.29175985,19.8119138 8.47713407,19.2649067 C8.66250829,18.7145902 8.79789941,18.3131996 8.89446871,18.0541159 C7.83657393,15.2164874 6.7743117,12.3972973 5.69603546,9.58992676 C4.61970032,6.78492011 3.5535559,3.96336614 2.49323476,1.12715597 L0.0620178681,0.254403182 L0.0620178681,0.0128123513 C1.61440566,0.0785288396 3.16388182,0.12675245 4.69977034,0.157483182 C6.23808522,0.190105036 7.78853192,0.143299767 9.34625772,0.0128123513 L9.34625772,0.254403182 L6.51566128,1.12715597 L10.9326146,13.6544206 C11.7580637,11.5590575 12.555367,9.46038491 13.3143337,7.36454899 C14.0771826,5.27107698 14.9055433,3.18942447 15.7994159,1.12715597 L13.0168614,0.254403182 L13.0168614,0.0128123513 C14.1786046,0.0785288396 15.3185105,0.109259572 16.4424024,0.109259572 C17.5682353,0.109259572 18.7110529,0.0785288396 19.8703697,0.0128123513 L19.8208718,0.254403182 Z" id="Fill-25" fill="#1A171B" mask="url(#mask-6)"></path>
                </g>
            </g>
        </g>
    </g>
</svg>